<svg width="27" height="24" viewBox="0 0 27 24" fill="none" xmlns="http://www.w3.org/2000/svg">
<path d="M13.6513 0.0333002C12.7101 0.145606 11.6833 0.493221 10.9025 0.953142C10.3303 1.29006 9.44252 2.14038 9.02538 2.76074C8.39967 3.68058 7.85418 5.03895 7.59748 6.3385C7.45309 7.06047 7.298 8.28514 7.298 8.71832C7.298 9.12476 7.26057 9.18359 6.91295 9.38681C6.45303 9.64886 6.00915 10.1516 5.75245 10.6864C5.38345 11.4565 5.29253 12.0126 5.21231 13.9325C5.18557 14.6545 5.1214 15.8204 5.07861 16.5263C4.92887 18.9703 4.99305 20.703 5.27114 21.6122C5.60806 22.7138 6.28724 23.377 7.44239 23.7406C8.10019 23.9438 8.88099 24.0027 10.2661 23.9492C10.9346 23.9225 11.8223 23.9225 12.325 23.9438C13.7422 24.0187 17.689 24.0187 18.7425 23.9438C20.0474 23.8476 20.3148 23.7995 20.7587 23.5855C21.3791 23.2807 21.7695 22.8368 22.0155 22.1576L22.1385 21.8207L22.1331 18.1039C22.1331 14.4994 22.0529 11.6383 21.946 11.157C21.8657 10.804 21.6572 10.3922 21.4005 10.1034C21.1545 9.81999 20.6411 9.46703 20.4058 9.41355L20.2507 9.38146L20.2774 8.06053C20.3148 6.57381 20.256 5.79836 20.0421 4.84108C19.4752 2.27943 17.9618 0.616223 15.7477 0.129563C15.1808 0.00656058 14.2182 -0.0362228 13.6513 0.0333002ZM15.7049 0.610875C17.3628 1.03336 18.7158 2.42382 19.3201 4.31164C19.534 4.96943 19.6463 5.64862 19.7105 6.57915C19.7587 7.39204 19.7159 9.21568 19.641 9.25846C19.6196 9.2745 19.2025 9.26916 18.7158 9.24776L17.8388 9.21033L17.8708 8.37605C17.9029 7.41878 17.8281 6.37593 17.6676 5.76092C17.3842 4.63786 16.6622 3.65384 15.8279 3.24205C15.3734 3.01744 15.015 2.95326 14.4161 2.98C13.5765 3.02813 12.8331 3.37575 12.1646 4.03889C11.2929 4.89456 10.8865 6.19945 10.8062 8.37071L10.7741 9.09268H9.619H8.4585L8.49059 8.23701C8.57081 6.18876 9.07886 4.36511 9.93987 3.04953C10.0575 2.87305 10.3838 2.49869 10.6618 2.2206C11.6726 1.21519 12.7368 0.685746 14.1701 0.487873C14.4803 0.44509 15.3145 0.509265 15.7049 0.610875ZM15.0632 3.56293C15.6621 3.69128 16.1649 4.06028 16.5713 4.67529C17.1382 5.53096 17.2986 6.26363 17.2986 8.07122V9.24242L16.0579 9.20498C15.3734 9.18894 14.031 9.15685 13.0791 9.14081L11.3464 9.10337L11.3785 8.24236C11.4319 6.93212 11.6566 5.83044 12.0202 5.13522C12.2502 4.69134 12.8438 4.11376 13.3198 3.86241C13.9455 3.53619 14.4963 3.44527 15.0632 3.56293ZM15.5873 9.75582L19.9993 9.84673L20.3041 9.98578C20.9138 10.2692 21.3096 10.7826 21.4112 11.419C21.5235 12.157 21.6411 18.0397 21.5823 20.35C21.5449 21.8475 21.5449 21.8796 21.4058 22.179C21.2293 22.5587 20.855 22.9384 20.4913 23.1042C19.9298 23.3609 17.9778 23.4786 14.9188 23.4358C12.7047 23.4037 9.50134 23.2807 8.59755 23.1898C7.98253 23.1256 7.59748 22.9491 7.175 22.532C6.72577 22.0881 6.59742 21.7672 6.53325 20.9651C6.44233 19.7618 6.62416 12.1249 6.76321 11.3655C6.9076 10.5847 7.45309 9.97508 8.23389 9.72908C8.52802 9.63816 10.2019 9.64351 15.5873 9.75582Z" fill="#814FC0"/>
<path d="M1.36899 9.12139C0.77002 9.32996 0.347534 9.68292 0.122922 10.1696C-0.0535597 10.5546 -0.0375159 11.2766 0.155009 11.683C0.304751 12.0039 0.727237 12.5013 0.893022 12.5548C0.983937 12.5815 0.994633 12.6724 1.01068 13.5602C1.02672 14.4747 1.03207 14.5442 1.15507 14.7367C1.3476 15.0522 1.62034 15.1645 2.15513 15.1378C2.6311 15.1218 2.78084 15.0522 3.0001 14.7527C3.10171 14.6191 3.11241 14.5174 3.12845 13.5762L3.1445 12.5441L3.45468 12.2232C3.86112 11.806 4.01086 11.437 4.01621 10.8434C4.01621 10.4905 3.99482 10.3621 3.87716 10.1161C3.68464 9.69362 3.4012 9.40483 2.99475 9.20161C2.51344 8.9663 1.89308 8.93421 1.36899 9.12139ZM2.68992 9.66688C2.93593 9.76849 3.25145 10.068 3.35841 10.3086C3.41724 10.437 3.46002 10.6509 3.46002 10.8434C3.46002 11.2873 3.28889 11.6349 2.90384 11.9665L2.60436 12.2285V13.2821C2.60436 14.5602 2.59366 14.587 2.08026 14.587C1.5829 14.587 1.58825 14.603 1.58825 13.4372C1.58825 12.881 1.57221 12.389 1.55616 12.3408C1.53477 12.2927 1.43316 12.2125 1.3262 12.1537C1.05881 12.02 0.711193 11.6296 0.620278 11.3729C0.518668 11.0627 0.534711 10.6135 0.668409 10.3621C1.00533 9.70431 1.9733 9.37274 2.68992 9.66688Z" fill="#814FC0"/>
<path d="M21.983 1.34376C21.7798 1.56837 21.2182 2.54169 20.9829 3.08183C20.785 3.54176 20.7743 3.57919 20.8546 3.69685C20.908 3.78241 20.9883 3.8252 21.0952 3.8252C21.2396 3.8252 21.2664 3.78776 21.5712 3.15671C21.7423 2.79305 22.0204 2.28499 22.1862 2.03364C22.5017 1.54698 22.5552 1.34911 22.3841 1.25819C22.2183 1.17263 22.1274 1.19402 21.983 1.34376Z" fill="#814FC0"/>
<path d="M23.6149 3.89426C22.8662 4.40231 22.2298 4.85688 22.2031 4.89966C22.1175 5.03871 22.2031 5.26332 22.3528 5.30076C22.4651 5.3275 22.7165 5.1831 23.8288 4.4344C24.5668 3.93704 25.2139 3.48781 25.2728 3.43433C25.3851 3.32738 25.4065 3.1295 25.3102 3.03324C25.1605 2.8835 24.9519 2.99046 23.6149 3.89426Z" fill="#814FC0"/>
<path d="M22.8233 6.45094C22.7324 6.54186 22.7377 6.79321 22.8233 6.86808C22.8661 6.90017 23.5559 6.99643 24.3635 7.082C25.6577 7.22104 25.8449 7.23174 25.9518 7.16222C26.0855 7.07665 26.1069 6.86808 25.9946 6.75043C25.9465 6.7023 25.5507 6.63812 24.7753 6.5579C23.1228 6.38142 22.8981 6.37073 22.8233 6.45094Z" fill="#814FC0"/>
</svg>
