<svg width="24" height="22" viewBox="0 0 24 22" fill="none" xmlns="http://www.w3.org/2000/svg">
<path d="M23.0675 0.060597C22.9737 0.0934095 22.805 0.177784 22.6925 0.243409C22.3409 0.449659 20.2831 2.3106 19.1534 3.44966C18.5534 4.04966 18.0518 4.54185 18.0425 4.54185C18.0331 4.54185 17.9909 4.45278 17.9487 4.34497C17.8362 4.07778 17.5128 3.5856 17.2268 3.26216C16.4815 2.40903 15.1034 1.49028 13.7862 0.960597C10.9315 -0.178466 7.50026 0.140284 4.84714 1.79028C4.02214 2.30122 2.96745 3.22466 2.34401 3.96997C1.42058 5.08091 0.651826 6.5856 0.295576 7.99653C0.0518261 8.95278 -0.00442387 9.4731 0.000263632 10.6122C0.00495113 11.5122 0.0190136 11.7231 0.122139 12.2762C0.525264 14.3856 0.984639 15.6184 1.83776 16.8465C3.22058 18.8434 5.28308 20.2965 7.60808 20.9247C11.494 21.97 15.7503 20.5965 18.3565 17.47C19.4393 16.1668 20.2315 14.5403 20.6112 12.8481C20.6721 12.5715 20.7378 12.2387 20.7565 12.1028C20.794 11.8075 20.7096 11.1981 20.5878 10.9262C20.5175 10.7622 20.48 10.7247 20.3956 10.7387C20.2596 10.7575 20.1846 10.9215 19.88 11.8028C19.0784 14.1653 17.9815 15.8715 16.4065 17.2215C15.0331 18.4075 13.594 19.0918 11.8268 19.4106C11.2737 19.509 9.52995 19.495 8.94401 19.3872C7.58933 19.1387 6.29558 18.5903 5.26433 17.8356C3.38933 16.4575 2.19401 14.5918 1.72058 12.2997C1.61745 11.7981 1.58933 11.5215 1.57526 10.7668C1.54714 9.75903 1.58464 9.3606 1.77683 8.62935C2.25495 6.78716 3.48308 4.95435 4.97839 3.84341C8.24558 1.42466 12.5956 1.46216 15.8675 3.93716C16.0831 4.10122 16.4675 4.40122 16.73 4.61216C16.9925 4.81841 17.2643 5.02935 17.3393 5.0856L17.4706 5.18403L16.0925 6.64653C14.9253 7.87935 14.5925 8.20278 13.9596 8.71372C13.0503 9.44028 12.2346 10.1575 11.2456 11.0997L10.5003 11.8075L9.76901 11.095C9.36589 10.7012 8.63933 9.96997 8.15183 9.46372C7.66433 8.96216 7.20026 8.51216 7.12058 8.46997C7.04089 8.4231 6.8862 8.3856 6.77839 8.3856C6.61433 8.3856 6.56276 8.40903 6.50183 8.50747C6.43151 8.6106 6.42683 8.65747 6.47839 8.86841C6.56745 9.26685 7.1487 10.3731 7.58933 10.9872C8.21276 11.8497 9.87683 13.734 10.1487 13.8793C10.3409 13.9825 10.6128 13.9872 10.8003 13.8887C11.1237 13.7247 14.18 10.8559 15.9378 9.07466C16.7065 8.29185 17.78 7.24185 18.319 6.74028C20.3768 4.8231 23.0159 2.08091 23.6159 1.23716C24.0096 0.688722 24.0659 0.266847 23.7659 0.088722C23.5925 -0.0190905 23.3206 -0.0284655 23.0675 0.060597Z" fill="#814FC0"/>
</svg>
