<?xml version="1.0" encoding="UTF-8"?>
<svg width="1707px" height="347px" viewBox="0 0 1707 347" version="1.1" xmlns="http://www.w3.org/2000/svg">
    <title>Group 2</title>
    <g id="Page-1" stroke="none" stroke-width="1" fill="none" fill-rule="evenodd">
        <g id="Group-2" transform="translate(-0, 0)">
            <path d="M708.61961,90 L708.61961,129.983843 L746.464668,129.983843 L746.464668,160.478877 L708.61961,160.478877 C708.569973,174.019687 708.542753,185.725267 708.53795,195.595616 L708.53795,201.688029 C708.542753,210.771851 708.569973,218.020442 708.61961,223.433804 C708.729518,235.420532 719.150815,237.306365 739.8835,229.091304 C739.921523,229.161794 739.965241,229.256873 740.014656,229.376539 L740.076687,229.53194 C741.080552,232.123593 744.05499,243.221635 749,262.826064 C676.672872,288.186964 661.310501,252.541792 661.310501,235.21968 L661.310501,159.549566 L641,159.549566 L641,129.249118 L661.310501,129.249118 L661.310501,90 L708.61961,90 Z" id="Combined-Shape-Copy-9" fill="#000000"></path>
            <path d="M67.6196095,90 L67.6196095,129.983843 L105.464668,129.983843 L105.464668,160.478877 L67.6196095,160.478877 C67.5699732,174.019687 67.5427533,185.725267 67.5379498,195.595616 L67.5379498,201.688029 C67.5427533,210.771851 67.5699732,218.020442 67.6196095,223.433804 C67.7295184,235.420532 78.1508153,237.306365 98.8835003,229.091304 C98.9215228,229.161794 98.9652413,229.256873 99.0146558,229.376539 L99.0766872,229.53194 C100.080552,232.123593 103.05499,243.221635 108,262.826064 C35.6728724,288.186964 20.310501,252.541792 20.310501,235.21968 L20.310501,159.549566 L2.27373675e-13,159.549566 L2.27373675e-13,129.249118 L20.310501,129.249118 L20.310501,90 L67.6196095,90 Z" id="Combined-Shape-Copy-10" fill="#000000"></path>
            <path d="M120.716465,136.776789 C161.177075,119.376282 192.57433,114.749917 214.908229,122.897695 C248.409078,135.119362 254,152.174047 254,160.607882 L254,270.30456 L206.791174,270.30456 C206.772768,269.825523 206.762339,268.455 206.759885,266.19299 L206.759885,263.851777 C206.762339,261.04116 206.772768,257.339056 206.791174,252.745465 C159.999371,289.796316 114.215043,265.11007 112.095507,226.210106 C110.682483,200.276796 124.948697,184.877616 154.894149,180.012566 C155.803491,179.970768 159.382454,179.946525 165.631039,179.939837 L166.541855,179.939001 C166.696684,179.938881 166.853027,179.938772 167.010883,179.938672 L168.47245,179.938045 C168.639387,179.938006 168.807837,179.937976 168.9778,179.937956 L170.01574,179.937956 C170.191757,179.937976 170.369288,179.938006 170.548331,179.938045 L172.200586,179.938672 C172.38871,179.938772 172.578347,179.938881 172.769498,179.939001 L173.934563,179.939837 C182.217145,179.946525 193.169349,179.970768 206.791174,180.012566 C206.791174,153.597108 182.388157,149.202178 133.582122,166.827778 Z M180.466558,206.163469 L175.812634,206.163469 C170.915788,206.170111 168.380567,206.200542 168.206969,206.254762 C167.613472,206.44013 154.682161,210.697785 155.858183,222.778585 C156.962707,233.667848 163.85264,239.175062 176.527982,239.300226 L176.972492,239.302409 C190.126526,239.302409 198.975419,235.424099 203.519172,227.66748 C204.705797,225.641797 206.198188,222.671659 206.198188,220.746399 L206.198188,206.254762 C194.978871,206.199151 186.24384,206.168566 179.993094,206.163005 Z" id="Combined-Shape-Copy-11" fill="#000000"></path>
            <path d="M1648.56192,0 C1673.8449,0 1691.23853,7.709185 1700.7428,23.127555 C1710.24707,38.545925 1708.92407,58.7559225 1696.77381,83.7575475 C1639.27493,214.224624 1608.57372,283.782129 1604.67018,292.430064 C1598.81488,305.401966 1563.22458,347 1498.0891,347 L1090.63581,347 L1090.389,346.999 L1087.06748,347 C1062.37748,347 1045.3918,339.290831 1036.11044,323.872494 C1026.82908,308.454157 1028.12105,288.244203 1039.98635,263.242631 C1096.13666,132.775832 1126.11781,63.2184748 1129.9298,54.5705583 C1135.64777,41.5986837 1170.40334,0.000738616429 1234.01114,0.000738616429 L1648.56192,0 Z M1335.05412,135.247485 C1312.95503,127.063936 1281.88789,131.710612 1241.85268,149.187512 L1254.58306,179.370433 C1302.87596,161.667452 1327.0224,166.081677 1327.0224,192.613106 C1313.22288,192.570125 1302.19219,192.545625 1293.93034,192.539608 L1292.7955,192.538888 L1287.66036,192.538888 L1286.74115,192.539608 C1280.28227,192.545625 1276.59222,192.570125 1275.67102,192.613106 C1246.04041,197.499515 1231.92419,212.966301 1233.32236,239.013466 C1235.41961,278.084212 1280.72256,302.878837 1327.0224,265.665323 C1327.00489,270.101628 1326.99468,273.710086 1326.99176,276.490695 L1326.99176,279.430059 C1326.99468,281.548389 1327.00489,282.838872 1327.0224,283.301507 L1373.73488,283.301507 L1373.73488,173.12323 C1370.04679,156.056282 1357.1532,143.431034 1335.05412,135.247485 Z M1450.68078,63 L1400.31491,63 L1400.31491,280.95944 L1450.68078,280.95944 L1450.68078,258.987434 C1462.47178,276.835399 1478.54983,285.041704 1498.91494,283.606346 C1529.46261,281.453311 1572,266.908755 1572,204.975031 C1572,143.041307 1532.7055,121.020063 1498.91494,121.020063 C1476.38791,121.020063 1460.30985,128.140648 1450.68078,142.381819 L1450.68078,63 Z M1211.93468,63.6890204 L1164,63.6890204 L1164,281.546068 L1214.20625,281.546068 L1211.93468,63.6890204 Z M1326.43565,218.970512 L1326.43565,233.5765 C1323.57157,245.967665 1313.93209,252.163248 1297.51723,252.163248 L1297.07739,252.161055 C1284.53532,252.035341 1277.71783,246.50395 1276.62492,235.56688 C1275.84914,227.477655 1279.92213,221.945532 1288.84387,218.970512 L1326.43565,218.970512 Z M1486.15746,159.865244 C1515.04617,159.865244 1521.12268,191.951222 1521.12268,202.56008 C1521.12268,213.168937 1517.60209,243.150602 1486.15746,243.150602 C1454.71282,243.150602 1450.1885,213.181542 1450.1885,202.56008 C1450.1885,191.938617 1457.26875,159.865244 1486.15746,159.865244 Z" id="Combined-Shape-Copy-12" fill="#17A036"></path>
            <polygon id="Path-6-Copy-2" fill="#000000" points="269 68 315 68 315 271 269 271"></polygon>
            <path d="M325.011631,203.203962 L325.01,203.171 L325,203.067134 L325.010559,203.072771 C324.979338,194.404393 322.851035,121 400.824684,121 C453.149795,121 478.518169,150.436164 476.929807,209.308493 L372.78166,209.308493 C372.78166,220.814465 384.896247,237.033567 405.931285,237.033567 C419.954644,237.033567 432.216942,232.011654 442.718177,221.967827 C443.205734,222.547758 444.690937,224.08331 447.173787,226.574485 L447.585156,226.986836 C447.725194,227.127078 447.868147,227.270113 448.014015,227.415939 L448.690097,228.091007 C452.864645,232.254496 459.164202,238.453481 467.588769,246.687961 C452.685775,261.458672 432.234271,271.077161 402.200887,270.999534 C355.283478,268.790594 329.592775,246.57499 325.128775,204.35272 L325.017,203.236 L325.011631,203.203962 Z M402.200887,154.215417 C384.762679,154.215417 374.95627,164.099616 372.78166,183.868014 L431.620114,183.868014 C429.445503,164.099616 419.639094,154.215417 402.200887,154.215417 Z" id="Combined-Shape-Copy-13" fill="#000000"></path>
            <path d="M487,120.176962 L534.353214,120.176962 L534.353214,144.629602 C544.674049,126.818065 563.155765,118.667185 589.798362,120.176962 C616.440959,121.686739 632.174838,137.681802 637,168.16215 L637,270 L589.798362,270 L589.798362,182.971003 C586.539483,168.647227 577.273363,161.485338 562,161.485338 C546.726637,161.485338 537.511042,169.69832 534.353214,186.124282 L534.353214,270 L487,270 L487,120.176962 Z" id="Path-10-Copy-2" fill="#000000"></path>
            <polygon id="Path-11-Copy-2" fill="#000000" points="759 124 805 124 805 271 759 271"></polygon>
            <path d="M781,105 C795.359403,105 807,92.7236653 807,79.3251299 C807,65.9265945 795.359403,53 781,53 C766.640597,53 755,65.9265945 755,79.3251299 C755,92.7236653 766.640597,105 781,105 Z" id="Oval-Copy-2" fill="#000000"></path>
            <path d="M899.491612,63.9605075 C867.041808,59.3589651 856.972835,72.6239041 852.750785,75.6254442 C843.621606,82.1155595 838.360348,92.0215876 836.967009,105.343528 L836.164934,128.544247 L818,128.544247 L818,160.073779 L836.967009,160.073779 L836.967009,271.125069 L883.322496,271.125069 L883.322496,160.073779 L910.818637,160.073779 L956.225226,266.299338 C948.767862,286.271505 935.384752,290.10006 916.075897,277.785004 C905.787654,293.514833 899.196463,304.109742 896.302324,309.569733 C934.042462,337.472776 964.744784,335.327302 988.409288,303.133312 C997.54767,290.701149 1004.04339,271.634735 1013.04231,250.97475 C1022.57861,229.081052 1037.54736,188.270884 1057.94856,128.544247 L1013.04231,128.544247 L980.938542,217.416441 L944.858665,128.544247 L896.302324,128.544247 L883.322496,128.544247 C881.219272,113.522841 884.525705,104.683871 893.241798,102.027335 C901.95789,99.3707985 909.569256,101.941049 916.075897,109.738085 L934.716266,76.3766063 C922.704134,69.7258474 910.962583,65.5871478 899.491612,63.9605075 Z" id="Path-12-Copy-2" fill="#000000"></path>
        </g>
    </g>
</svg>
